<svg width="485" height="152" xmlns="http://www.w3.org/2000/svg">
 <!---->

 <!---->
 <!---->
 <!---->
 <g>
  <title>Layer 1</title>
  <g transform="matrix(4.56969 0 0 4.56969 96.3299 -2.23107)" fill="#593196" id="35fa3215-a46c-2dc7-0ca7-44149903aade">
   <path id="svg_1" d="m-6.16779,29.30133l0,0q-2.18,0 -3.65,-1.47l0,0l0,0q-1.47,-1.47 -1.47,-3.67l0,0l0,0q0,-2.16 1.47,-3.64l0,0l0,0q1.47,-1.47 3.65,-1.47l0,0l0,0q2.19,0 3.76,1.37l0,0l-1.36,1.49l0,0q-1.05,-0.82 -2.4,-0.82l0,0l0,0q-1.38,0.01 -2.23,0.87l0,0l0,0q-0.84,0.85 -0.84,2.18l0,0l0,0q0,1.43 0.85,2.27l0,0l0,0q0.85,0.84 2.23,0.84l0,0l0,0q1.11,0 1.7,-0.43l0,0l0,-1.76l-1.36,0.01l0,-1.92l3.41,0l0,4.79l0,0q-1.56,1.36 -3.76,1.36l0,0zm7.43,-6.84l0,0.76l0,0q0.74,-0.75 1.79,-0.75l0,0l0,0q0.33,0 0.63,0.05l0,0l-0.3,1.89l0,0q-0.33,-0.3 -0.95,-0.32l0,0l0,0q-0.7,0.05 -1.17,1.01l0,0l0,4.2l-1.91,0l0,-6.63l1.91,-0.21zm6.77,6.91l0,0q-1.49,0 -2.49,-1l0,0l0,0q-0.99,-1 -0.99,-2.48l0,0l0,0q0,-1.49 0.99,-2.49l0,0l0,0q1,-1 2.49,-1l0,0l0,0q1.49,0 2.49,1l0,0l0,0q1,1 1,2.49l0,0l0,0q0,1.49 -1,2.48l0,0l0,0q-1,1 -2.49,1l0,0zm0,-1.65l0,0l0,0q0.77,0 1.26,-0.53l0,0l0,0q0.49,-0.52 0.49,-1.3l0,0l0,0q0,-0.78 -0.49,-1.3l0,0l0,0q-0.49,-0.53 -1.27,-0.53l0,0l0,0q-0.77,0 -1.26,0.53l0,0l0,0q-0.48,0.52 -0.48,1.3l0,0l0,0q0,0.78 0.48,1.3l0,0l0,0q0.49,0.53 1.27,0.53zm8.91,-0.84l0,0l0,-4.42l1.91,0l0,6.84l-1.91,0l0,-0.62l0,0q-0.69,0.62 -1.64,0.62l0,0l0,0q-1.3,0 -1.98,-0.79l0,0l0,0q-0.69,-0.79 -0.69,-1.81l0,0l0,-4.24l1.92,0l0,3.76l0,0q0,0.68 0.34,1.06l0,0l0,0q0.34,0.38 1.03,0.4l0,0l0,0q0.6,-0.04 1.02,-0.8zm5.45,5.3l-1.91,-0.01l0,-9.5l1.91,-0.21l0,0.55l0,0q0.77,-0.55 1.51,-0.55l0,0l0,0q1.57,0 2.49,1.03l0,0l0,0q0.93,1.02 0.93,2.39l0,0l0,0q0,1.37 -0.93,2.39l0,0l0,0q-0.92,1.03 -2.49,1.03l0,0l0,0q-1.03,-0.07 -1.51,-0.56l0,0l0,3.44zm0,-6.92l0,0l0,1.11l0,0q0.14,1.15 1.44,1.35l0,0l0,0q1.64,-0.13 1.85,-1.7l0,0l0,0q-0.07,-1.92 -1.85,-1.99l0,0l0,0q-1.3,0.21 -1.44,1.23zm9.38,4.11l0,0q-1.49,0 -2.48,-1l0,0l0,0q-1,-1 -1,-2.48l0,0l0,0q0,-1.49 1,-2.49l0,0l0,0q0.99,-1 2.48,-1l0,0l0,0q1.49,0 2.49,1l0,0l0,0q1,1 1,2.49l0,0l0,0q0,1.49 -1,2.48l0,0l0,0q-1,1 -2.49,1l0,0zm0,-1.65l0,0l0,0q0.78,0 1.26,-0.53l0,0l0,0q0.49,-0.52 0.49,-1.3l0,0l0,0q0,-0.78 -0.49,-1.3l0,0l0,0q-0.48,-0.53 -1.27,-0.53l0,0l0,0q-0.77,0 -1.26,0.53l0,0l0,0q-0.48,0.52 -0.48,1.3l0,0l0,0q0,0.78 0.48,1.3l0,0l0,0q0.49,0.53 1.27,0.53zm6.68,-2.79l0,0l0,4.37l-1.92,0l0,-6.63l1.92,-0.21l0,0.61l0,0q0.64,-0.6 1.64,-0.6l0,0l0,0q1.29,0 1.98,0.78l0,0l0,0q0.75,-0.78 2.25,-0.78l0,0l0,0q1.3,0 1.99,0.78l0,0l0,0q0.68,0.79 0.68,1.82l0,0l0,4.23l-1.91,0l0,-3.76l0,0q0,-0.68 -0.31,-1.06l0,0l0,0q-0.31,-0.37 -1,-0.39l0,0l0,0q-0.57,0.04 -0.98,0.75l0,0l0,0q-0.04,0.21 -0.04,0.43l0,0l0,4.03l-1.91,0l0,-3.76l0,0q0,-0.68 -0.31,-1.06l0,0l0,0q-0.31,-0.37 -1,-0.39l0,0l0,0q-0.63,0.04 -1.08,0.84zm11.11,-0.48l-0.75,-1.16l0,0q1.3,-0.82 3.01,-0.82l0,0l0,0q1.23,0 1.94,0.68l0,0l0,0q0.72,0.69 0.72,2.05l0,0l0,4.1l-1.91,0l0,-0.54l0,0q-0.84,0.54 -1.51,0.54l0,0l0,0q-1.36,0 -2.05,-0.58l0,0l0,0q-0.68,-0.58 -0.68,-1.6l0,0l0,0q0,-0.96 0.65,-1.71l0,0l0,0q0.64,-0.75 2.08,-0.75l0,0l0,0q0.67,0 1.51,0.41l0,0l0,-0.21l0,0q-0.02,-0.75 -1.1,-0.82l0,0l0,0q-1.23,0 -1.91,0.41l0,0zm3.01,2.8l0,0l0,-0.77l0,0q-0.27,-0.53 -1.3,-0.53l0,0l0,0q-1.23,0.14 -1.3,0.96l0,0l0,0q0.07,0.81 1.3,0.88l0,0l0,0q1.03,0 1.3,-0.54zm5.54,-2.29l0,0l0,4.34l-1.92,0l0,-6.63l1.92,-0.21l0,0.62l0,0q0.69,-0.61 1.64,-0.61l0,0l0,0q1.3,0 1.98,0.78l0,0l0,0q0.68,0.79 0.68,1.82l0,0l0,4.23l-1.91,0l0,-3.76l0,0q0,-0.68 -0.34,-1.06l0,0l0,0q-0.35,-0.37 -1.04,-0.39l0,0l0,0q-0.59,0.04 -1.01,0.87zm7.82,4.34l-1.91,0l0,-6.84l1.91,0l0,6.84zm-1.98,-8.47l0,0l0,0q0,0.41 0.27,0.68l0,0l0,0q0.28,0.27 0.76,0.27l0,0l0,0q0.47,0 0.75,-0.27l0,0l0,0q0.27,-0.27 0.27,-0.68l0,0l0,0q0,-0.41 -0.27,-0.69l0,0l0,0q-0.28,-0.28 -0.77,-0.28l0,0l0,0q-0.46,0 -0.74,0.28l0,0l0,0q-0.27,0.28 -0.27,0.69zm4.53,3.62l-0.75,-1.16l0,0q1.3,-0.82 3.01,-0.82l0,0l0,0q1.23,0 1.95,0.68l0,0l0,0q0.71,0.69 0.71,2.05l0,0l0,4.1l-1.91,0l0,-0.54l0,0q-0.83,0.54 -1.5,0.54l0,0l0,0q-1.37,0 -2.05,-0.58l0,0l0,0q-0.69,-0.58 -0.69,-1.6l0,0l0,0q0,-0.96 0.65,-1.71l0,0l0,0q0.64,-0.75 2.09,-0.75l0,0l0,0q0.66,0 1.5,0.41l0,0l0,-0.21l0,0q-0.01,-0.75 -1.09,-0.82l0,0l0,0q-1.23,0 -1.92,0.41l0,0zm3.01,2.8l0,0l0,-0.77l0,0q-0.27,-0.53 -1.3,-0.53l0,0l0,0q-1.23,0.14 -1.3,0.96l0,0l0,0q0.07,0.81 1.3,0.88l0,0l0,0q1.03,0 1.3,-0.54z"/>
  </g>
  <g fill="#907fb3" transform="matrix(0.928889 0 0 0.928889 183.178 -199.525)" id="c3a0a99d-5b99-a49f-d46f-4168a2d07e26">
   <switch transform="translate(3.22966 -2.84217e-14) translate(8.61244 3.22966) translate(10.7655 -30.1435) translate(0.0829067 -2.84217e-14) translate(-1.08291 -2.84217e-14) translate(0.0829067 -2.84217e-14) translate(-1.08291 -2.84217e-14) translate(0.0829395 -2.84217e-14) translate(-1.08334 -2.84217e-14) translate(0.0886889 -2.84217e-14) translate(-1.15853 -2.84217e-14) translate(1.07072 -2.84217e-14) translate(0.0760731 -2.84217e-14) translate(-0.993648 -2.84217e-14) translate(-1.08283 -2.84217e-14) translate(0.0819211 -2.84217e-14) translate(-1.07025 -2.84217e-14) translate(-0.0823974 -2.84217e-14) translate(1.07632 -2.84217e-14) translate(0.00305541 -2.84217e-14) translate(-0.039901 -2.84217e-14) translate(0.521341 -2.84217e-14) translate(194.856 32.2966) translate(6.45933 -1.07655)">
    <g id="svg_2">
     <path id="svg_3" d="m-155,298.8c11.2,0 21.7,-4.3 29.6,-12.2c7.9,-7.9 12.2,-18.4 12.2,-29.6c0,-11.2 -4.3,-21.7 -12.2,-29.6c-7.9,-7.9 -18.4,-12.2 -29.6,-12.2s-21.7,4.3 -29.6,12.2c-7.9,7.9 -12.2,18.4 -12.2,29.6c0,11.2 4.3,21.7 12.2,29.6c7.9,7.9 18.4,12.2 29.6,12.2zm2.4,-7.1c-0.8,0.1 -1.6,0.1 -2.4,0.1c-1.1,0 -2.2,-0.1 -3.3,-0.2c-3.6,-5.6 -6.3,-11.6 -7.9,-17.9l17.7,0c0.6,1.5 1.7,2.9 3,3.8c-1.7,5 -4.1,9.7 -7.1,14.2zm9.5,-2c1.9,-3.5 3.4,-7 4.6,-10.7c2.9,-0.6 5.2,-2.6 6.3,-5.3l7.7,0c-4,7.3 -10.7,13 -18.6,16zm22.8,-32.7c0,3.3 -0.5,6.5 -1.3,9.6l-10.8,0c-0.6,-1.3 -1.6,-2.5 -2.8,-3.4c0.2,-2.2 0.3,-4.4 0.3,-6.6c0,-3.1 -0.2,-6.2 -0.6,-9.2l13.8,0c1,3 1.4,6.3 1.4,9.6zm-4.2,-16.7l-12.2,0c-1.3,-5.5 -3.2,-10.7 -5.8,-15.7c7.6,2.9 14,8.6 18,15.7zm-17.4,16.3c0,1.7 -0.1,3.4 -0.2,5.1c-2.8,0.6 -5.1,2.4 -6.2,4.9l-19.3,0c-0.4,-3 -0.7,-6.1 -0.7,-9.1c0,-1.9 0.1,-3.8 0.3,-5.7c2.6,-0.5 4.7,-2.2 6,-4.4l19.5,0c0.4,3 0.6,6.1 0.6,9.2zm-15.7,-34.2c0.9,-0.1 1.8,-0.1 2.6,-0.1c1,0 2,0 3,0.1c3.6,5.6 6.3,11.6 7.9,17.9l-17.4,0c-0.6,-1.7 -1.7,-3.2 -3.1,-4.3c1.8,-4.8 4.1,-9.3 7,-13.6zm-9.5,2c-1.7,3.2 -3.2,6.6 -4.4,10c-3.1,0.6 -5.6,2.9 -6.6,5.8l-7.3,0c3.9,-7.1 10.4,-12.8 18.3,-15.8zm-22.6,32.6c0,-3.3 0.5,-6.6 1.4,-9.6l10.9,0c0.6,1.1 1.5,2.1 2.5,2.9c-0.2,2.4 -0.4,4.8 -0.4,7.2c0,3.1 0.2,6.1 0.6,9.1l-13.6,0c-1,-3.1 -1.4,-6.3 -1.4,-9.6zm16.2,16.6c1.3,5.4 3.2,10.7 5.8,15.7c-7.6,-3 -13.9,-8.6 -17.8,-15.7l12,0z"/>
    </g>
   </switch>
  </g>
 </g>
</svg>