<svg xmlns="http://www.w3.org/2000/svg" width="485" height="152">
  <path fill="#593196" d="M68.145 131.667q-9.962 0-16.68-6.718-6.717-6.717-6.717-16.77 0-9.87 6.718-16.634 6.717-6.717 16.679-6.717 10.008 0 17.182 6.26l-6.215 6.809q-4.798-3.747-10.967-3.747-6.306.045-10.19 3.975-3.839 3.885-3.839 9.962 0 6.535 3.884 10.374 3.885 3.838 10.19 3.838 5.073 0 7.77-1.965v-8.043l-6.216.046v-8.774h15.583v21.89q-7.129 6.214-17.182 6.214zm33.953-31.257v3.473q3.381-3.427 8.18-3.427 1.508 0 2.878.228l-1.37 8.637q-1.508-1.37-4.342-1.462-3.198.228-5.346 4.615v19.193H93.37V101.37l8.728-.96zm30.937 31.577q-6.81 0-11.379-4.57-4.524-4.57-4.524-11.333 0-6.809 4.524-11.378 4.57-4.57 11.379-4.57 6.808 0 11.378 4.57t4.57 11.378q0 6.81-4.57 11.333-4.57 4.57-11.378 4.57zm0-7.54q3.518 0 5.757-2.422 2.24-2.376 2.24-5.94 0-3.565-2.24-5.941-2.239-2.422-5.803-2.422-3.519 0-5.758 2.422-2.193 2.376-2.193 5.94 0 3.565 2.193 5.94 2.24 2.423 5.804 2.423zm40.716-3.839V100.41h8.728v31.257h-8.728v-2.833q-3.154 2.833-7.495 2.833-5.94 0-9.048-3.61-3.153-3.61-3.153-8.271V100.41h8.774v17.182q0 3.108 1.554 4.844 1.553 1.737 4.706 1.828 2.742-.183 4.662-3.656zm24.904 24.22-8.728-.046V101.37l8.728-.96v2.514q3.519-2.514 6.9-2.514 7.175 0 11.38 4.707 4.249 4.661 4.249 10.922 0 6.26-4.25 10.921-4.204 4.707-11.378 4.707-4.707-.32-6.9-2.56v15.72zm0-31.623v5.073q.64 5.255 6.58 6.169 7.495-.594 8.455-7.769-.32-8.773-8.454-9.093-5.94.96-6.58 5.62zm42.864 18.782q-6.809 0-11.333-4.57-4.57-4.57-4.57-11.333 0-6.809 4.57-11.378 4.524-4.57 11.333-4.57t11.379 4.57q4.57 4.57 4.57 11.378 0 6.81-4.57 11.333-4.57 4.57-11.379 4.57zm0-7.54q3.564 0 5.758-2.422 2.239-2.376 2.239-5.94 0-3.565-2.24-5.941-2.193-2.422-5.803-2.422-3.518 0-5.757 2.422-2.194 2.376-2.194 5.94 0 3.565 2.194 5.94 2.239 2.423 5.803 2.423zm30.526-12.75v19.97h-8.774V101.37l8.774-.96v2.788q2.924-2.742 7.494-2.742 5.895 0 9.048 3.564 3.427-3.564 10.282-3.564 5.94 0 9.093 3.564 3.108 3.61 3.108 8.317v19.33h-8.728v-17.182q0-3.107-1.417-4.844-1.417-1.69-4.57-1.782-2.604.183-4.478 3.427-.183.96-.183 1.965v18.416h-8.728v-17.182q0-3.107-1.416-4.844-1.417-1.69-4.57-1.782-2.88.183-4.935 3.838zm50.769-2.193-3.427-5.3q5.94-3.748 13.754-3.748 5.621 0 8.866 3.107 3.29 3.153 3.29 9.368v18.736h-8.728v-2.468q-3.839 2.468-6.9 2.468-6.215 0-9.368-2.65-3.108-2.65-3.108-7.312 0-4.387 2.97-7.814 2.925-3.427 9.505-3.427 3.062 0 6.9 1.873v-.96q-.09-3.427-5.026-3.747-5.62 0-8.728 1.874zm13.755 12.795v-3.519q-1.234-2.422-5.941-2.422-5.62.64-5.94 4.387.32 3.702 5.94 4.022 4.707 0 5.94-2.468zm25.316-10.465v19.833h-8.774V101.37l8.774-.96v2.833q3.153-2.787 7.494-2.787 5.94 0 9.048 3.564 3.107 3.61 3.107 8.317v19.33h-8.728v-17.182q0-3.107-1.553-4.844-1.6-1.69-4.753-1.782-2.696.183-4.615 3.975zm35.735 19.833h-8.728V100.41h8.728v31.257zm-9.048-38.705q0 1.873 1.233 3.107 1.28 1.234 3.473 1.234 2.148 0 3.428-1.234 1.234-1.234 1.234-3.107 0-1.874-1.234-3.153-1.28-1.28-3.519-1.28-2.102 0-3.382 1.28-1.233 1.28-1.233 3.153zm20.7 16.542-3.427-5.3q5.94-3.748 13.755-3.748 5.62 0 8.91 3.107 3.245 3.153 3.245 9.368v18.736h-8.728v-2.468q-3.793 2.468-6.854 2.468-6.26 0-9.368-2.65-3.153-2.65-3.153-7.312 0-4.387 2.97-7.814 2.925-3.427 9.55-3.427 3.017 0 6.855 1.873v-.96q-.046-3.427-4.98-3.747-5.622 0-8.775 1.874zm13.755 12.795v-3.519q-1.234-2.422-5.94-2.422-5.621.64-5.941 4.387.32 3.702 5.94 4.022 4.707 0 5.941-2.468z"/>
  <switch fill="#907fb3" transform="translate(386.988 -195.525) scale(.92889)">
    <g>
      <path d="M-155 298.8c11.2 0 21.7-4.3 29.6-12.2 7.9-7.9 12.2-18.4 12.2-29.6 0-11.2-4.3-21.7-12.2-29.6-7.9-7.9-18.4-12.2-29.6-12.2s-21.7 4.3-29.6 12.2c-7.9 7.9-12.2 18.4-12.2 29.6 0 11.2 4.3 21.7 12.2 29.6 7.9 7.9 18.4 12.2 29.6 12.2zm2.4-7.1c-.8.1-1.6.1-2.4.1-1.1 0-2.2-.1-3.3-.2-3.6-5.6-6.3-11.6-7.9-17.9h17.7c.6 1.5 1.7 2.9 3 3.8-1.7 5-4.1 9.7-7.1 14.2zm9.5-2c1.9-3.5 3.4-7 4.6-10.7 2.9-.6 5.2-2.6 6.3-5.3h7.7c-4 7.3-10.7 13-18.6 16zm22.8-32.7c0 3.3-.5 6.5-1.3 9.6h-10.8c-.6-1.3-1.6-2.5-2.8-3.4.2-2.2.3-4.4.3-6.6 0-3.1-.2-6.2-.6-9.2h13.8c1 3 1.4 6.3 1.4 9.6zm-4.2-16.7h-12.2c-1.3-5.5-3.2-10.7-5.8-15.7 7.6 2.9 14 8.6 18 15.7zm-17.4 16.3c0 1.7-.1 3.4-.2 5.1-2.8.6-5.1 2.4-6.2 4.9h-19.3c-.4-3-.7-6.1-.7-9.1 0-1.9.1-3.8.3-5.7 2.6-.5 4.7-2.2 6-4.4h19.5c.4 3 .6 6.1.6 9.2zm-15.7-34.2c.9-.1 1.8-.1 2.6-.1 1 0 2 0 3 .1 3.6 5.6 6.3 11.6 7.9 17.9h-17.4c-.6-1.7-1.7-3.2-3.1-4.3 1.8-4.8 4.1-9.3 7-13.6zm-9.5 2c-1.7 3.2-3.2 6.6-4.4 10-3.1.6-5.6 2.9-6.6 5.8h-7.3c3.9-7.1 10.4-12.8 18.3-15.8zm-22.6 32.6c0-3.3.5-6.6 1.4-9.6h10.9c.6 1.1 1.5 2.1 2.5 2.9-.2 2.4-.4 4.8-.4 7.2 0 3.1.2 6.1.6 9.1h-13.6c-1-3.1-1.4-6.3-1.4-9.6zm16.2 16.6c1.3 5.4 3.2 10.7 5.8 15.7-7.6-3-13.9-8.6-17.8-15.7h12z"/>
    </g>
  </switch>
</svg>
